<?xml version="1.0" ?><svg id="Travel" style="enable-background:new 0 0 48 48;" version="1.1" viewBox="0 0 48 48" xml:space="preserve" xmlns="http://www.w3.org/2000/svg" xmlns:xlink="http://www.w3.org/1999/xlink"><path d="M44.17157,20c-0.75012,0-1.46954,0.29797-2,0.82843L33,30h-5c0-1.65686-1.34314-3-3-3H11L1,37l10,10  l6-6h13l16.17157-16.17157c0.53046-0.53046,0.82843-1.24988,0.82843-2C47,21.2663,45.73364,20,44.17157,20z" style="fill:#F0C84B;"/><circle cx="24" cy="12" r="11" style="fill:#58CFB4;"/><path d="M24,1c6.07513,0,11,4.92487,11,11s-4.92487,11-11,11V1z" style="fill:#42B79C;"/><path d="M44.17139,19c-1.02246,0-1.98389,0.39844-2.70703,1.12158L32.58594,29h-3.7124  C28.42822,27.27686,26.86035,26,25,26H11c-0.26514,0-0.51953,0.10547-0.70703,0.29297l-10,10  c-0.39062,0.39062-0.39062,1.02344,0,1.41406l10,10C10.48828,47.90234,10.74414,48,11,48s0.51172-0.09766,0.70703-0.29297  L17.41406,42H30c0.26514,0,0.51953-0.10547,0.70703-0.29297l16.17139-16.17139C47.60156,24.8125,48,23.85107,48,22.82861  C48,20.71729,46.28271,19,44.17139,19z M45.46436,24.12158L29.58594,40H17c-0.26514,0-0.51953,0.10547-0.70703,0.29297L11,45.58594  L2.41406,37l9-9H25c1.10303,0,2,0.89697,2,2s-0.89697,2-2,2h-7c-0.55225,0-1,0.44775-1,1s0.44775,1,1,1h7  c1.86035,0,3.42822-1.27686,3.87354-3H33c0.26514,0,0.51953-0.10547,0.70703-0.29297l9.17139-9.17139  C43.22412,21.19043,43.68311,21,44.17139,21C45.17969,21,46,21.82031,46,22.82861C46,23.31689,45.80957,23.77588,45.46436,24.12158z  " style="fill:#0A0B0F;"/><path d="M37.99902,9.60254c0.31055,0,0.61621-0.14404,0.81152-0.41455l1.01697-1.40826l0.87915,2.35468  L39.604,11.31836c-0.37646,0.4043-0.354,1.03711,0.05029,1.41357C39.84717,12.91113,40.0918,13,40.33594,13  c0.26758,0,0.53467-0.10693,0.73193-0.31836l1.18311-1.27051l1.72607,0.18408c0.54932,0.05957,1.04199-0.33887,1.1001-0.88818  c0.05859-0.54883-0.33887-1.0415-0.88818-1.1001l-1.60822-0.17169l-0.87939-2.3551l1.69122,0.3974  c0.53613,0.12598,1.07568-0.20752,1.20215-0.74512c0.12598-0.5376-0.20703-1.07568-0.74512-1.20215L40.86047,4.828l-0.86194-2.30847  c-0.19336-0.51758-0.76904-0.77979-1.28662-0.5874c-0.51758,0.19336-0.78027,0.76953-0.5874,1.28662l0.86224,2.30927  l-1.7973,2.48907c-0.32373,0.44775-0.22266,1.07275,0.2251,1.396C37.5918,9.54102,37.79639,9.60254,37.99902,9.60254z" style="fill:#0A0B0F;"/><path d="M12.93842,16.64984C14.75879,20.96393,19.03125,24,24,24c4.96954,0,9.24249-3.03711,11.06232-7.35229  c0.84839-0.24377,1.63995-0.51257,2.33612-0.81519c0.50684-0.22021,0.73877-0.80908,0.51855-1.31543  c-0.21973-0.50635-0.80908-0.74072-1.31543-0.51855c-0.25726,0.11182-0.54553,0.21454-0.83075,0.31812  C35.91827,13.56641,36,12.79279,36,12c0-6.6167-5.3833-12-12-12S12,5.3833,12,12c0,0.79871,0.08215,1.57819,0.23175,2.33362  C10.15399,13.591,9,12.72327,9,12c0-0.44531,0.55713-1.02539,1.49023-1.55127c0.48145-0.271,0.65137-0.88086,0.38037-1.36182  C10.6001,8.60596,9.98877,8.43555,9.50879,8.70654C7.84424,9.64453,7,10.75244,7,12C7,14.08936,9.41785,15.64453,12.93842,16.64984z   M15.5058,17.25134c1.43921,0.27246,2.98212,0.47052,4.57562,0.59338c0.57733,1.60211,1.28461,2.95264,1.88721,3.94702  C19.24274,21.22699,16.92834,19.54388,15.5058,17.25134z M14.05066,11c0.13947-1.39832,0.57184-2.70978,1.22894-3.87939  c1.38153,0.42767,2.78876,0.76123,4.21515,0.9798C19.26959,9.01849,19.10522,9.98755,19.0387,11H14.05066z M21.50885,8.34167  C22.33752,8.41113,23.16852,8.45068,24,8.45068s1.66248-0.03955,2.49115-0.10901c0.22217,0.8429,0.3811,1.73193,0.45233,2.65833  h-5.88696C21.12775,10.07361,21.28668,9.18457,21.50885,8.34167z M25.85834,6.3772c-1.23749,0.08295-2.47919,0.08295-3.71667,0  C22.7431,4.84125,23.46344,3.57367,24,2.73877C24.53656,3.57367,25.2569,4.84125,25.85834,6.3772z M33.94934,11H28.9613  c-0.06653-1.01245-0.2309-1.98151-0.45605-2.8996c1.42639-0.21857,2.83362-0.55212,4.21515-0.9798  C33.3775,8.29022,33.80988,9.60168,33.94934,11z M26.94348,13c-0.07898,1.02698-0.26337,2.01196-0.52307,2.93396  C25.62408,15.9729,24.81885,16,24,16c-0.83844,0-1.63873-0.02588-2.41968-0.06323c-0.26007-0.92279-0.44476-1.90875-0.5238-2.93677  H26.94348z M24,18c0.57806,0,1.14771-0.01343,1.71338-0.03168c-0.57031,1.3761-1.21863,2.52301-1.71338,3.29291  c-0.49457-0.76959-1.14258-1.91583-1.71271-3.29126C22.85706,17.98877,23.42847,18,24,18z M26.03137,21.79175  c0.60144-0.99249,1.30707-2.33978,1.88385-3.93787c1.62579-0.1239,3.15771-0.33221,4.57947-0.60339  C31.07214,19.5434,28.75763,21.22693,26.03137,21.79175z M28.53436,15.78198c0.21045-0.8833,0.36322-1.81287,0.42694-2.78198  h4.98804c-0.06787,0.68042-0.20343,1.34119-0.40125,1.97485C32.05231,15.33679,30.35504,15.60974,28.53436,15.78198z   M31.48907,5.39563c-1.17358,0.33173-2.3642,0.59027-3.56952,0.76233c-0.57751-1.60327-1.28528-2.95477-1.88818-3.94971  C28.18689,2.65485,30.08337,3.80347,31.48907,5.39563z M21.96863,2.20825c-0.60291,0.99493-1.31067,2.34644-1.88818,3.94971  c-1.20532-0.17206-2.39594-0.4306-3.56952-0.76233C17.91663,3.80347,19.81311,2.65485,21.96863,2.20825z M14.05066,13h4.98804  c0.0639,0.9726,0.21765,1.90533,0.42926,2.79144c-1.90216-0.17847-3.58154-0.46204-5.01282-0.80786  C14.2558,14.34717,14.11884,13.68365,14.05066,13z" style="fill:#0A0B0F;"/></svg>